<svg width="126" height="61" viewBox="0 0 126 61" fill="none" xmlns="http://www.w3.org/2000/svg">
<path d="M14.0359 38.8208C12.1413 38.8208 10.302 39.0967 8.57092 39.6415C6.90188 40.1668 5.38686 40.9274 4.11024 41.8808C2.80343 42.8515 1.76783 44.0032 1.06259 45.2702C0.357345 46.5371 -0.00371569 47.8944 2.88293e-05 49.2647C-0.00356113 50.6349 0.357685 51.9923 1.06313 53.2593C1.76857 54.5262 2.8044 55.6779 4.11142 56.6485C5.38803 57.6019 6.90306 58.3625 8.57209 58.8878C10.3032 59.4326 12.1496 59.7085 14.043 59.7085C15.0626 59.7085 16.0634 59.6267 17.0595 59.4648V57.2594C16.0776 57.463 15.0627 57.5663 14.043 57.5666C12.5754 57.5689 11.1218 57.3549 9.76705 56.9373C8.41227 56.5197 7.18333 55.9067 6.15183 55.1341C5.11109 54.3634 4.2864 53.4482 3.72513 52.4409C3.16387 51.4336 2.8771 50.3542 2.8813 49.2647C2.8765 48.1753 3.16266 47.0959 3.72332 46.0887C4.28399 45.0814 5.1081 44.166 6.1483 43.3952C7.17907 42.6226 8.40738 42.0096 9.76159 41.592C11.1158 41.1743 12.5688 40.9604 14.0359 40.9627C19.2563 40.9627 23.4876 44.1115 23.4876 47.9966C23.4876 49.43 22.9114 50.7651 21.9212 51.8774L19.4633 47.3813C19.1034 46.7242 18.6753 45.732 17.0418 45.732C15.4107 45.732 14.9838 46.7242 14.6263 47.3813L12.366 51.5336L9.33416 45.8382H6.14712L9.9257 52.7573C10.3091 53.4596 10.7254 54.4083 12.3683 54.4083C14.0089 54.4083 14.4228 53.4596 14.805 52.7581L17.0442 48.6441L19.2951 52.7581C19.7502 53.6049 20.2324 54.4065 21.7295 54.4065C22.7914 54.4065 23.4641 53.8991 23.8322 53.5719C25.4815 51.9698 26.3725 50.0106 26.3677 47.9966C26.3666 42.9287 20.8463 38.8208 14.0359 38.8208Z" fill="#FFDEB1"/>
<path d="M57.5932 5.65461e-06C56.248 0.00183797 54.8836 0.382678 53.977 1.13717L26.9615 23.9061C24.5873 26.6977 28.0279 29.366 32.6915 30.1226C41.4514 31.2115 49.4741 28.3006 49.4741 28.3006C61.2921 24.0799 68.9243 21.697 68.9243 21.697C78.3426 19.0321 86.5822 22.3021 86.5996 22.309L61.1004 1.13717C60.2648 0.376053 58.9381 -0.00168571 57.5929 5.65461e-06H57.5932ZM57.604 2.33959C58.6623 2.33776 59.7065 2.63586 60.3641 3.23461C66.5918 8.39441 73.6692 13.7139 79.6285 18.9666C79.6285 18.9666 73.9417 17.3145 66.5226 19.4138C66.5226 19.4138 60.5138 21.2893 51.2142 24.6105C51.2142 24.6105 44.9032 26.9001 38.0098 26.0431C34.3397 25.4478 31.6304 23.3475 33.4985 21.1507L54.7596 3.23475C55.473 2.64108 56.5454 2.34086 57.604 2.33959V2.33959ZM78.8659 22.3051C68.6774 22.4457 59.8371 27.759 52.6364 29.3293C63.5837 36.6731 96.3588 27.961 84.0855 23.0937C82.5284 22.5013 80.7648 22.279 78.8659 22.3051ZM78.8035 23.737C80.1787 23.7412 81.4297 23.9419 82.482 24.4111C88.2597 27.6326 66.5612 33.2367 57.3346 29.5515C60.3176 29.4229 71.3763 23.7144 78.8035 23.737Z" fill="#FFDEB1"/>
<path d="M38.9768 54.1353V56.4753H29.2208V43.8753H38.7428V46.2153H32.1188V48.9513H37.9688V51.2193H32.1188V54.1353H38.9768ZM49.0046 46.2513H44.9726V43.8753H55.9526V46.2513H51.9206V56.4753H49.0046V46.2513ZM65.5496 56.4753L63.1196 52.9653H62.9756H60.4376V56.4753H57.5216V43.8753H62.9756C64.0916 43.8753 65.0576 44.0613 65.8736 44.4333C66.7016 44.8053 67.3376 45.3333 67.7816 46.0173C68.2256 46.7013 68.4476 47.5113 68.4476 48.4473C68.4476 49.3833 68.2196 50.1933 67.7636 50.8773C67.3196 51.5493 66.6836 52.0653 65.8556 52.4253L68.6816 56.4753H65.5496ZM65.4956 48.4473C65.4956 47.7393 65.2676 47.1993 64.8116 46.8273C64.3556 46.4433 63.6896 46.2513 62.8136 46.2513H60.4376V50.6433H62.8136C63.6896 50.6433 64.3556 50.4513 64.8116 50.0673C65.2676 49.6833 65.4956 49.1433 65.4956 48.4473ZM79.0559 53.7753H73.2059L72.0899 56.4753H69.1019L74.7179 43.8753H77.5979L83.2319 56.4753H80.1719L79.0559 53.7753ZM78.1379 51.5613L76.1399 46.7373L74.1419 51.5613H78.1379ZM95.9676 43.8753L90.5136 56.4753H87.6336L82.1976 43.8753H85.3476L89.1816 52.8753L93.0696 43.8753H95.9676ZM106.776 54.1353V56.4753H97.0196V43.8753H106.542V46.2153H99.9176V48.9513H105.768V51.2193H99.9176V54.1353H106.776ZM109.096 43.8753H112.012V54.0993H118.33V56.4753H109.096V43.8753Z" fill="#FFDEB1"/>
</svg>

